<?xml version="1.0" encoding="UTF-8" standalone="no"?>
<!-- Created with Inkscape (http://www.inkscape.org/) -->

<svg
   width="1024mm"
   height="1024mm"
   viewBox="0 0 1024.0001 1024"
   version="1.1"
   id="svg1"
   xml:space="preserve"
   sodipodi:docname="bitmap_Capa 4_whitout_background_only_icon.svg"
   inkscape:version="1.3.2 (091e20e, 2023-11-25, custom)"
   inkscape:export-filename="bitmap_Capa 4 background.png"
   inkscape:export-xdpi="96"
   inkscape:export-ydpi="96"
   xmlns:inkscape="http://www.inkscape.org/namespaces/inkscape"
   xmlns:sodipodi="http://sodipodi.sourceforge.net/DTD/sodipodi-0.dtd"
   xmlns="http://www.w3.org/2000/svg"
   xmlns:svg="http://www.w3.org/2000/svg"><sodipodi:namedview
     id="namedview1"
     pagecolor="#ffffff"
     bordercolor="#000000"
     borderopacity="0.25"
     inkscape:showpageshadow="2"
     inkscape:pageopacity="0.0"
     inkscape:pagecheckerboard="0"
     inkscape:deskcolor="#d1d1d1"
     inkscape:document-units="mm"
     inkscape:zoom="0.25"
     inkscape:cx="2058"
     inkscape:cy="2098"
     inkscape:window-width="2560"
     inkscape:window-height="1351"
     inkscape:window-x="-9"
     inkscape:window-y="-9"
     inkscape:window-maximized="1"
     inkscape:current-layer="layer1"
     showgrid="false"><inkscape:grid
       id="grid1"
       units="mm"
       originx="0"
       originy="0"
       spacingx="1.0000001"
       spacingy="0.99999997"
       empcolor="#0099e5"
       empopacity="0.30196078"
       color="#0099e5"
       opacity="0.14901961"
       empspacing="5"
       dotted="false"
       gridanglex="30"
       gridanglez="30"
       visible="false" /></sodipodi:namedview><defs
     id="defs1" /><g
     id="layer1"
     transform="matrix(8.1714565,0,0,9.5196162,-73.496787,-97.687851)"><g
       id="g1"
       transform="matrix(0.19538344,0,0,0.18037703,9.4761621,85.365361)"
       style="fill:#1a7783;fill-opacity:1"><path
         d="m 127.03144,-276.79592 c -0.57322,0.14104 -1.14644,0.28209 -1.73705,0.42739 -7.34545,1.84164 -14.13665,4.27398 -20.91233,7.62986 -0.69487,0.32951 -1.38975,0.65905 -2.10568,0.99858 -21.069445,10.45638 -34.25978,28.78512 -41.494361,50.18331 -3.424891,11.40116 -4.355399,22.5422 -4.246759,34.3807 0.0078,1.01367 0.0078,1.01367 0.0098,2.04781 0.05508,9.7629 0.360883,19.28761 2.538164,28.8536 0.141639,0.64725 0.283193,1.29451 0.429136,1.96138 1.672349,7.54567 3.598302,14.96562 6.365675,22.21044 0.249145,0 0.49829,0 0.754985,0 -0.01205,-0.91494 -0.02339,-1.82988 -0.03623,-2.77256 -0.04154,-3.4511 -0.06721,-6.90217 -0.08848,-10.35342 -0.01134,-1.48311 -0.02644,-2.9662 -0.04608,-4.44924 -0.233521,-17.946 2.294605,-32.76198 14.515486,-46.88289 0.747426,-0.90362 0.747426,-0.90362 1.50996,-1.82548 9.001356,-10.45857 22.203754,-15.98406 35.949984,-17.52511 12.79965,-0.5027 25.18595,3.69503 36.52802,9.09589 0,0.24172 0,0.48344 0,0.73248 -0.93428,0.23228 -1.86856,0.46455 -2.83117,0.70387 -7.73059,1.99341 -15.16941,4.36288 -22.55501,7.3534 -0.73186,0.29494 -1.46371,0.58989 -2.21775,0.89377 -16.18245,6.70214 -32.232578,16.82311 -39.211739,33.16645 -5.629726,14.76752 -1.321653,31.93415 4.907371,45.77994 2.18984,4.58404 4.415995,9.13071 7.549798,13.18461 0.24915,0 0.49829,0 0.75498,0 0.007,-0.475 0.0142,-0.95 0.0213,-1.4394 0.32738,-17.58574 3.31272,-30.78672 15.0782,-44.70678 0.41751,-0.50704 0.83502,-1.01409 1.26519,-1.5365 5.40708,-5.92281 13.28102,-8.29802 21.1866,-8.86699 7.53933,-0.13318 13.18021,1.41074 19.07207,6.00861 -0.93137,0.30736 -0.93137,0.30736 -1.88155,0.6209 -13.35835,4.65432 -21.17144,12.32817 -27.16156,24.62102 -3.41267,7.65239 -2.6865,16.67574 0.0855,24.4236 1.80155,4.12032 3.98641,7.9966 6.3082,11.8627 0.95901,-1.82344 1.8572,-3.66186 2.73975,-5.5222 5.01029,-10.38691 12.07599,-19.52779 23.41616,-23.94004 15.71432,-5.03143 33.19772,-1.32194 47.83203,5.29047 2.88839,1.4479 5.67869,3.03009 8.46109,4.66095 2.10863,1.19887 2.10863,1.19887 4.37356,1.93135 0.35719,-0.72704 0.71435,-1.4541 1.08233,-2.20317 5.07614,-10.18155 10.88126,-19.25083 18.54713,-27.82847 0.54306,-0.62507 1.08611,-1.25015 1.64562,-1.89414 3.58283,-4.02035 7.42603,-7.40744 11.72872,-10.69535 1.72524,-1.32762 1.72524,-1.32762 3.23521,-2.79258 2.48146,-28.40873 -18.86981,-67.97464 -36.72855,-89.53399 -2.29904,-2.62325 -4.63997,-5.2014 -7.05434,-7.72534 -1.05653,-1.13273 -2.06861,-2.30536 -3.04352,-3.50502 -9.55879,-11.41829 -25.64823,-19.87576 -39.99619,-23.75689 -0.80874,-0.22 -1.61748,-0.44 -2.45074,-0.66668 -13.95894,-3.24606 -28.32491,-2.06658 -42.09303,1.39916 z"
         fill="#c63945"
         id="path4-0"
         style="fill:#1a7783;fill-opacity:1;stroke-width:0.743643" /><path
         d="m 462.24218,-274.64987 c -0.59953,0.41828 -1.19898,0.83657 -1.81665,1.26752 -18.99596,14.03176 -32.27219,34.45724 -42.20809,55.22484 -10.5528,24.34744 -10.5528,24.34744 -28.45329,43.12464 0,0.48343 0,0.96687 0,1.46496 0.39416,0.14298 0.78832,0.28597 1.19444,0.43328 17.30314,6.33758 32.01205,14.63945 45.32339,27.15304 0.90184,0.84534 1.81752,1.67675 2.73571,2.50537 16.06919,14.84042 26.24209,36.29115 30.77426,57.07327 0.13769,0.61585 0.27546,1.23172 0.41731,1.86625 1.21697,6.10738 1.32399,12.09392 1.28949,18.289426 -0.008,1.71944 0,3.43832 0.009,5.157748 0.0101,9.347071 -0.84238,18.324759 -3.74543,27.287711 -0.28767,0.916162 -0.28767,0.916162 -0.58114,1.850861 -1.57498,4.874363 -3.4824,9.585273 -5.62147,14.251685 -0.56722,1.254442 -1.08068,2.531525 -1.58311,3.811704 0.24909,0.483436 0.49829,0.966872 0.75498,1.464964 1.77964,-1.4777 3.55648,-2.958331 5.33207,-4.440654 0.74372,-0.616805 0.74372,-0.616805 1.50253,-1.24607 6.21301,-5.196418 11.4634,-10.794791 16.56975,-17.020113 0.59171,-0.691167 1.18342,-1.382333 1.79304,-2.09444 20.44496,-24.540201 32.21358,-58.573392 29.16109,-90.197882 -0.72354,-4.90359 -1.72763,-9.74547 -2.80165,-14.58663 -1.63383,-7.38944 -2.74542,-14.4187 -2.67195,-21.99154 0.008,-0.76947 0.0101,-1.53895 0.0156,-2.33174 0.0751,-5.45605 0.4188,-10.69398 1.68319,-16.02598 0.20248,-0.86584 0.40488,-1.7317 0.61345,-2.62377 3.87053,-15.19297 11.26727,-29.48891 19.76307,-42.72764 4.53733,-7.16362 6.95,-13.80204 7.03864,-22.12812 0.022,-0.66852 0.0438,-1.33701 0.0665,-2.02577 0.0462,-4.82832 -0.94245,-8.30725 -3.32225,-12.53224 -0.29307,-0.52273 -0.58606,-1.04548 -0.88805,-1.58405 -5.69024,-9.7684 -15.77449,-15.15869 -26.50348,-18.41889 -16.25869,-4.01152 -32.47927,0.40542 -45.84139,9.74826 z"
         fill="#c3996c"
         id="path5-2"
         style="fill:#1a7783;fill-opacity:1;stroke-width:0.743643" /><path
         d="m 271.47723,-150.88685 c -4.54582,3.46381 -8.85018,7.19316 -13.07943,11.01293 -0.59657,0.52217 -1.19315,1.04431 -1.80782,1.58227 -14.08963,12.87474 -23.9175,30.6266 -29.28787,48.50098 -0.17975,0.59551 -0.35948,1.19101 -0.54467,1.80455 -2.84692,9.90299 -4.29013,19.47686 -4.22114,29.73781 0.002,0.535984 0.004,1.07196 0.004,1.624182 0.0556,10.160421 1.35257,19.735131 4.14833,29.551948 0.19001,0.67428 0.38004,1.348571 0.57582,2.043282 5.8829,20.1847412 17.46031,36.726437 32.64326,51.427619 0.68904,0.676993 1.37807,1.353993 2.08799,2.051516 23.5209,21.944891 55.92897,30.055235 87.68638,29.50368 28.23235,-0.709766 54.59843,-13.739156 74.81112,-32.287672 0.9868,-0.886609 0.9868,-0.886609 1.99355,-1.791142 12.77269,-11.860878 21.2502,-26.2289738 27.45061,-42.157526 0.5241,-1.291696 0.5241,-1.291696 1.0587,-2.609468 7.01831,-18.543865 8.7503,-41.930023 3.47121,-61.116189 -0.26225,-1.1067 -0.5216,-2.21405 -0.77862,-3.3219 -2.02374,-8.40265 -5.11465,-16.0481 -9.0361,-23.77981 -0.36404,-0.72706 -0.728,-1.45409 -1.10306,-2.20316 -5.15102,-9.67736 -11.89394,-18.297 -19.73819,-26.04521 -0.96169,-0.95951 -1.89528,-1.94531 -2.82559,-2.93351 -16.3151,-16.88768 -38.89452,-26.09756 -61.68716,-31.20184 -0.67134,-0.15041 -0.67134,-0.15041 -1.35623,-0.30384 -30.86853,-5.81484 -65.31158,2.99057 -90.46511,20.9105 z m 137.16145,14.67532 c 0.98242,0.80024 0.98242,0.80024 1.98471,1.61662 16.38512,13.80708 28.07181,32.18213 33.49924,52.58683 0.2258,0.78275 0.45159,1.5655 0.68427,2.37197 3.4543,14.196986 3.11655,31.85428 -0.68427,45.97162 -0.14997,0.560507 -0.29996,1.121021 -0.45447,1.698514 -2.36181,8.504654 -5.74367,16.235908 -10.11523,23.9382502 -0.4447,0.799734 -0.88947,1.599483 -1.3477,2.42347 -2.86848,4.97626401 -6.13376,9.383672 -9.97698,13.69103 -0.6219,0.701545 -1.24374,1.403084 -1.88449,2.1258998 -16.80165,18.57036 -41.1824,31.80518 -66.81862,33.765516 -31.86762,1.584883 -59.35349,-6.234812 -83.57852,-27.06735 -5.93838,-5.241875 -10.95758,-11.0804778 -15.32371,-17.61380779 -0.47978,-0.69682101 -0.9596,-1.39364901 -1.45392,-2.11158801 -6.30397,-9.4769522 -11.06841,-19.8334952 -13.64567,-30.8499342 -0.2248,-0.921546 -0.44961,-1.843098 -0.68125,-2.792572 -5.88318,-26.809302 -0.0553,-54.289708 15.04947,-77.173488 1.43576,-1.97529 2.93282,-3.86007 4.50626,-5.73394 0.48047,-0.57451 0.48047,-0.57451 0.97063,-1.1606 2.38669,-2.83871 4.84014,-5.61118 7.33415,-8.36162 0.46033,-0.51839 0.92065,-1.03676 1.39493,-1.57084 15.32711,-16.08975 41.24331,-27.40903 63.73674,-28.59047 28.47354,-0.4778 54.49547,4.39892 76.80443,22.83649 z"
         fill="#c49a6d"
         id="path6-3"
         style="fill:#1a7783;fill-opacity:1;stroke-width:0.743643" /><path
         d="m 465.26212,-357.41988 c -1.41561,0.77826 -1.41561,0.77826 -2.26496,2.19743 -0.77345,5.46698 1.6666,9.239 4.87494,13.45929 0.33681,0.44419 0.67369,0.88838 1.02074,1.34604 0.68113,0.88681 1.37259,1.76624 2.07547,2.63699 2.32927,3.00028 3.10193,5.16957 3.35354,8.92688 -5.15353,-0.74842 -8.63654,-2.30568 -12.78748,-5.31046 -1.05095,-0.72604 -2.10284,-1.45089 -3.1556,-2.17454 -0.50188,-0.34935 -1.00386,-0.69872 -1.52099,-1.05867 -8.30468,-5.76175 -8.30468,-5.76175 -12.07451,-5.28185 -0.71627,0.2115 -1.4326,0.42301 -2.1706,0.64093 -0.63255,4.90998 -0.63255,4.90998 0.99094,7.34767 1.38354,1.51006 2.82004,2.9448 4.29394,4.37198 6.17264,6.16655 6.17264,6.16655 8.58789,14.14597 0.0109,2.72457 0.0109,2.72457 -1.7931,4.16598 -4.39119,0.65641 -7.35167,-1.17848 -11.04155,-3.20459 -1.12653,-0.60095 -2.25306,-1.20181 -3.37967,-1.8026 -0.49305,-0.26851 -0.9861,-0.53701 -1.49417,-0.81366 -3.90964,-2.08138 -6.76544,-2.9525 -11.26381,-2.23642 -2.25322,0.95723 -2.89649,1.71195 -4.52991,3.66239 -0.52387,2.86471 -0.69005,4.56996 0.68903,7.14775 2.38669,3.28551 4.91796,5.38436 8.41788,7.50181 0.4954,0.30928 0.99079,0.61858 1.50113,0.93724 4.43735,2.74853 8.93056,5.40351 13.5513,7.8525 0.49344,0.26438 0.98688,0.52876 1.49518,0.80115 6.35736,3.04864 13.07085,0.99407 19.50269,-0.70959 19.42838,-5.06039 36.70507,-5.47527 55.255,2.83835 2.00912,1.15352 3.958,2.341 5.87472,3.63377 1.67513,0.7611 1.67513,0.7611 3.63042,0.68671 3.43138,-1.24104 4.75866,-4.19755 6.34945,-7.25039 3.28048,-8.54101 5.67491,-18.50542 3.2588,-27.57379 -0.71501,-1.45933 -1.48149,-2.64881 -2.50381,-3.92277 -0.55916,-0.70816 -0.55916,-0.70816 -1.1295,-1.43062 -1.78052,-2.11938 -3.3005,-3.6321 -5.66536,-5.16168 -1.98181,0.18313 -1.98181,0.18313 -3.77485,0.73249 -1.09234,2.11951 -1.08145,4.25444 -1.29762,6.59515 -0.0579,1.45905 -0.0579,1.45905 -0.96733,2.19458 -2.18921,0.085 -3.30691,0.0676 -5.28489,-0.73249 -4.24348,-4.13247 -7.10069,-9.43604 -9.95624,-14.51222 -0.76109,-1.35014 -1.52672,-2.69788 -2.29735,-4.04292 -0.49516,-0.88069 -0.49516,-0.88069 -1.00033,-1.77916 -1.19664,-1.79936 -2.44592,-3.16526 -4.11056,-4.56995 -1.98182,-0.27467 -1.98182,-0.27467 -3.77492,0 -1.50997,1.46496 -1.50997,1.46496 -1.51881,2.83837 0.0808,0.51364 0.16156,1.02729 0.2448,1.55651 0.0751,0.51365 0.1499,1.0273 0.22705,1.55651 0.29197,1.3734 0.29197,1.3734 1.04696,2.83836 0.072,1.23446 0.098,2.47174 0.0944,3.70816 0,0.65811 0,1.31624 0.008,1.99428 0.0865,1.60313 0.0865,1.60313 -0.85529,2.35482 -4.95512,-0.0962 -7.2473,-1.85533 -10.5697,-5.12736 -1.87525,-2.21335 -3.58465,-4.52527 -5.28482,-6.86697 -11.73534,-16.01081 -11.73534,-16.01081 -18.8746,-15.10736 z"
         fill="#c63a46"
         id="path8-4"
         style="fill:#1a7783;fill-opacity:1;stroke-width:0.743643" /><path
         d="m 534.72013,-212.38925 c -0.49829,0 -0.99658,0 -1.50997,0 -10.11593,19.87374 -21.28235,44.48692 -14.33281,67.03606 1.1579,2.83074 2.65418,5.23706 4.51809,7.67672 0.45158,0.66472 0.90316,1.32944 1.36843,2.01432 3.32569,3.3188 6.89696,4.74935 11.65501,5.03579 6.42848,-0.25987 12.12732,-3.18859 16.46796,-7.73681 4.73983,-5.97818 5.1073,-10.91026 4.48266,-18.35776 -1.60667,-8.3285 -4.99127,-15.52614 -8.9182,-23.02727 -1.04743,-2.0265 -2.08908,-4.05574 -3.129,-6.08587 -0.38211,-0.74342 -0.38211,-0.74342 -0.77196,-1.50186 -2.72241,-5.33589 -5.17779,-10.77996 -7.56526,-16.26358 -0.28791,-0.65664 -0.57575,-1.31328 -0.87233,-1.98983 -0.85013,-2.23015 -1.10721,-4.44631 -1.39262,-6.79991 z"
         fill="#c73a46"
         id="path17-7"
         style="fill:#1a7783;fill-opacity:1;stroke-width:0.743643" /><path
         d="m 251.43267,31.772432 c -2.31804,0.229485 -3.02915,0.741883 -4.66848,2.412024 -0.84231,1.049492 -0.84231,1.049492 -1.70166,2.12018 -1.858,2.302359 -3.69793,4.549484 -5.75671,6.683859 -1.46277,1.968531 -1.46277,1.968531 -1.98182,4.074406 1.35385,5.970429 7.02005,10.443391 11.84373,14.008633 3.41036,2.048258 6.5782,2.633734 10.56971,2.197445 1.70039,-1.34675 2.88561,-2.460922 4.24675,-4.074414 0.35598,-0.401227 0.71192,-0.802453 1.07866,-1.215852 1.01182,-1.15282 1.99896,-2.321453 2.97936,-3.499476 0.46131,-0.54386 0.92262,-1.087719 1.3979,-1.648062 1.05577,-1.327626 1.05577,-1.327626 2.377,-3.479274 -1.03597,-3.01532 -3.11002,-3.668445 -5.85109,-5.08157 -4.85144,-2.53407 -8.76379,-5.034445 -12.12686,-9.384868 -0.45643,-0.585413 -0.91287,-1.170827 -1.38314,-1.773976 -0.50655,-0.662836 -0.50655,-0.662836 -1.02335,-1.339055 z"
         fill="#c3996d"
         id="path20-5"
         style="fill:#1a7783;fill-opacity:1;stroke-width:0.743643" /><path
         d="m 435.81788,27.131206 c -2.77889,0.898679 -3.25965,1.847585 -4.95457,4.120187 -4.55541,5.67661 -10.28696,9.006102 -16.93981,11.994321 0.63747,4.322602 2.93965,6.802023 5.70956,10.117351 0.45009,0.577383 0.90018,1.154766 1.36397,1.749648 3.31982,3.987328 3.31982,3.987328 5.81675,4.684922 5.58586,0.184594 9.73335,-2.903148 13.767,-6.300101 6.31135,-5.921063 6.31135,-5.921063 6.80362,-10.114484 -0.3084,-2.977547 -1.32321,-4.052227 -3.35613,-6.271837 -0.61602,-0.690226 -1.23206,-1.380437 -1.8668,-2.091569 -0.59851,-0.669446 -1.19702,-1.338891 -1.81368,-2.028618 -1.54502,-1.928922 -3.0445,-3.887461 -4.52991,-5.85982 z"
         fill="#c3996d"
         id="path21-7"
         style="fill:#1a7783;fill-opacity:1;stroke-width:0.743643" /><path
         d="m 284.46923,-103.33664 c 5.19214,8.54378 9.29017,15.26037 19.48404,19.65876 1.57081,0.79168 3.13649,1.59099 4.69709,2.39764 0.7961,0.39711 1.59221,0.79422 2.41244,1.20344 2.99253,1.5175 5.93792,3.09375 8.88237,4.67936 4.92681,2.65015 9.90451,5.19355 14.9742,7.63678 1.22476,-0.6375 2.44952,-1.27501 3.71139,-1.93183 -1.3572,-1.74925 -2.79425,-3.2615 -4.50604,-4.75316 -0.48693,-0.42632 -0.97386,-0.85264 -1.47554,-1.29182 -0.52334,-0.45462 -1.04667,-0.90917 -1.58588,-1.37751 -1.11598,-0.97464 -2.23183,-1.94944 -3.34756,-2.92433 -0.57295,-0.49972 -1.14591,-0.99936 -1.73622,-1.51419 -2.21991,-1.94264 -4.42362,-3.89877 -6.62602,-5.85634 -1.55727,-1.37665 -3.12885,-2.73993 -4.70281,-4.10207 -1.60452,-1.39274 -3.09042,-2.77637 -4.55626,-4.28583 -5.68127,-5.52148 -15.03301,-6.87008 -23.2592,-7.87641 -0.78078,0.11137 -1.56156,0.22276 -2.366,0.33751 z"
         fill="#c39a6f"
         id="path22-9"
         style="fill:#1a7783;fill-opacity:1;stroke-width:0.743643" /><path
         d="m 345.97538,-43.919195 c -1.24568,0 -2.49145,0 -3.77493,0 -0.87257,6.203911 -1.18278,12.396471 -1.4347,18.649598 -0.0477,1.179018 -0.0993,2.357883 -0.15632,3.536506 -0.31231,6.801782 0.3322,12.5007552 3.101,18.8327032 0.49828,0 0.99657,0 1.50996,0 0.65069,-1.271662 1.27424,-2.556436 1.88746,-3.845501 0.35034,-0.713822 0.70069,-1.427651 1.06168,-2.16311 2.0469,-6.8937752 0.64004,-14.3612192 -0.25951,-21.3677662 -0.15257,-1.247775 -0.15257,-1.247775 -0.30818,-2.520764 -0.46136,-3.724606 -0.97124,-7.423899 -1.62646,-11.121666 z"
         fill="#c39a6e"
         id="path41-1"
         style="fill:#1a7783;fill-opacity:1;stroke-width:0.743643" /><path
         d="m 547.55479,-241.68837 c -0.49829,0 -0.99659,0 -1.50997,0 -0.0827,0.47777 -0.16548,0.95553 -0.25067,1.44779 -0.71306,3.81352 -1.69336,6.80389 -3.52418,10.27187 0.89683,2.61046 1.70588,3.04616 3.96363,4.62376 2.946,2.13908 5.10643,4.2933 7.36106,7.09587 0.2491,0 0.49829,0 0.75498,0 0.52732,-8.81127 -0.70241,-16.59517 -6.79485,-23.43929 z"
         fill="#c49a6f"
         id="path61-3"
         style="fill:#1a7783;fill-opacity:1;stroke-width:0.743643" /><path
         d="m 441.10277,-61.498673 c -4.4846,0 -8.96921,0 -13.58963,0 0,2.658895 0,5.317789 0,8.057258 4.48453,0 8.96913,0 13.58963,0 0,-2.658896 0,-5.317798 0,-8.057258 z"
         fill="#c69f76"
         id="path66-8"
         style="fill:#1a7783;fill-opacity:1;stroke-width:0.743643" /><path
         d="m 261.41772,-63.696124 c -4.48457,0 -8.96915,0 -13.58962,0 0,2.658904 0,5.317799 0,8.057274 4.48457,0 8.96914,0 13.58962,0 0,-2.658901 0,-5.317797 0,-8.057274 z"
         fill="#c7a077"
         id="path67-3"
         style="fill:#1a7783;fill-opacity:1;stroke-width:0.743643" /><path
         d="m 347.48534,-152.32607 c -2.49144,0 -4.98289,0 -7.54976,0 0,4.35095 0,8.70187 0,13.18465 2.49137,0 4.98282,0 7.54976,0 0,-4.35093 0,-8.70185 0,-13.18465 z"
         fill="#c39a6e"
         id="path71-1"
         style="fill:#1a7783;fill-opacity:1;stroke-width:0.743643" /><path
         d="m 272.54757,-121.84544 c -1.75549,1.67632 -3.51098,3.35261 -5.31967,5.07971 3.2561,3.0657 6.51219,6.13143 9.86693,9.29002 1.75551,-1.67628 3.511,-3.35259 5.31968,-5.07968 -3.25608,-3.06572 -6.51216,-6.13144 -9.86694,-9.29005 z"
         fill="#c39a6e"
         id="path71-8-4"
         style="fill:#1a7783;fill-opacity:1;stroke-width:0.743643" /><path
         d="m 416.62728,-119.78682 c -1.78099,-1.65194 -3.56196,-3.30388 -5.39693,-5.00589 -3.20872,3.11024 -6.41752,6.22048 -9.72357,9.42495 1.78098,1.65197 3.56205,3.30391 5.39701,5.00591 3.20872,-3.11024 6.41752,-6.22048 9.72349,-9.42497 z"
         fill="#c39a6e"
         id="path71-7-9"
         style="fill:#1a7783;fill-opacity:1;stroke-width:0.743643" /><path
         d="m 410.52739,10.257392 c 1.71949,-1.7095218 3.43898,-3.4190388 5.21057,-5.1803698 -3.3206,-3.002837 -6.64121,-6.00567399 -10.06249,-9.0995 -1.71949,1.709517 -3.43897,3.41903901 -5.21056,5.180355 3.32067,3.002839 6.64127,6.005682 10.06248,9.0995148 z"
         fill="#c39a6e"
         id="path71-7-0-2"
         style="fill:#1a7783;fill-opacity:1;stroke-width:0.743643" /><path
         d="m 286.4071,0.28034721 c -1.76747,-1.66497401 -3.53491,-3.32992501 -5.35593,-5.04534501 -3.23406,3.086596 -6.46814,6.173192 -9.80021,9.353304 1.76747,1.664973 3.53491,3.329932 5.35593,5.045352 3.23406,-3.086597 6.46813,-6.173193 9.80021,-9.35331099 z"
         fill="#c39a6e"
         id="path71-7-0-5-4"
         style="fill:#1a7783;fill-opacity:1;stroke-width:0.743643" /><path
         d="m 347.48534,25.666245 c -2.49144,0 -4.98289,0 -7.54976,0 0,4.109203 0,8.218399 0,12.452125 2.49137,0 4.98282,0 7.54976,0 0,-4.109204 0,-8.218406 0,-12.452125 z"
         fill="#c2986b"
         id="path76-2"
         style="fill:#1a7783;fill-opacity:1;stroke-width:0.743643" /><path
         d="m 345.97538,-43.919195 c -1.24568,0 -2.49145,0 -3.77493,0 0.4983,0.483442 0.99658,0.966878 1.50998,1.464962 0.18338,1.787342 0.18338,1.787342 0.0943,3.753957 -0.0132,0.666606 -0.0274,1.333227 -0.0415,2.020035 -0.0172,0.51176 -0.0352,1.023528 -0.0532,1.550803 1.49487,0.725153 1.49487,0.725153 3.01993,1.464948 0,1.450306 0,2.90062 0,4.394875 0.24911,0 0.49829,0 0.75499,0 0.19934,-5.028572 -0.55987,-9.711544 -1.50997,-14.64958 z"
         fill="#c1996e"
         id="path127-4"
         style="fill:#1a7783;fill-opacity:1;stroke-width:0.743643" /><path
         d="m 61.34825,-151.59357 c -0.498282,0 -0.996572,0 -1.509961,0 0.485232,4.3311 1.653408,8.30809 3.019922,12.45215 1.62471,-2.36439 1.66163,-3.13794 1.509953,-5.85985 -0.498282,0 -0.996572,0 -1.509953,0 0.03098,-0.67983 0.06189,-1.35966 0.09437,-2.06008 -0.09437,-2.33479 -0.09437,-2.33479 -1.604329,-4.53222 z"
         fill="#c53d49"
         id="path147-6"
         style="fill:#1a7783;fill-opacity:1;stroke-width:0.743643" /><path
         d="m 156.47563,-118.63201 c -1.99314,0.48342 -3.98629,0.96686 -6.03984,1.46495 0,0.48344 0,0.96687 0,1.46496 -1.24572,0 -2.49143,0 -3.77489,0 -0.24915,1.45031 -0.49829,2.90061 -0.75497,4.39487 2.80739,0 3.26002,-0.6293 5.28483,-2.42633 0.51389,-0.45039 1.02775,-0.90078 1.55716,-1.36482 1.26667,-1.15708 2.50718,-2.33099 3.72771,-3.53363 z"
         fill="#c64552"
         id="path161-2"
         style="fill:#1a7783;fill-opacity:1;stroke-width:0.743643" /><path
         d="m 101.36215,-115.7021 c -0.24915,0 -0.49829,0 -0.75499,0 -0.24913,2.41718 -0.49827,4.83436 -0.754973,7.32479 -0.74743,0.24173 -1.49486,0.48343 -2.26493,0.73247 0.96702,2.67027 1.63581,3.78451 3.774893,5.85984 0,-4.59264 0,-9.18529 0,-13.9171 z"
         fill="#c7525e"
         id="path167-4"
         style="fill:#1a7783;fill-opacity:1;stroke-width:0.743643" /><path
         d="m 58.328336,-177.96278 c -1.667827,2.42721 -1.67968,3.18232 -1.604331,5.99717 0.01361,0.66 0.02715,1.32 0.04154,2 0.02644,0.75489 0.02644,0.75489 0.05289,1.52503 0.49829,-0.96686 0.996572,-1.93374 1.509961,-2.92991 0.498282,0 0.996572,0 1.509953,0 0.152054,-2.65544 -0.107356,-4.29599 -1.509953,-6.59229 z"
         fill="#c7434e"
         id="path191-5"
         style="fill:#1a7783;fill-opacity:1;stroke-width:0.743643" /><path
         d="m 158.74056,-154.52349 c -0.49829,0 -0.99656,0 -1.50996,0 0.24916,0.72515 0.4983,1.45032 0.75499,2.19742 -0.74744,0.48345 -1.49486,0.96689 -2.26495,1.46497 1.49487,0.24172 2.98972,0.48343 4.52987,0.73248 0.24915,-0.96688 0.4983,-1.93374 0.75498,-2.92991 -0.74742,0 -1.49485,0 -2.26493,0 0,-0.48345 0,-0.96688 0,-1.46496 z"
         fill="#c8404f"
         id="path222-5"
         style="fill:#1a7783;fill-opacity:1;stroke-width:0.743643" /><path
         d="m 95.322302,-207.99439 c -0.74742,0 -1.49486,0 -2.26493,0 0,0.48344 0,0.96688 0,1.46496 -0.49829,0 -0.99657,0 -1.50996,0 0.24914,0.96687 0.49829,1.93375 0.75498,2.92992 1.49485,-0.96688 2.98971,-1.93374 4.529885,-2.92992 -0.49829,-0.48343 -0.996585,-0.96688 -1.509975,-1.46496 z"
         fill="#c74450"
         id="path232-4"
         style="fill:#1a7783;fill-opacity:1;stroke-width:0.743643" /><path
         d="m 103.62709,-179.42775 c -2.82049,1.078 -2.82049,1.078 -3.774903,2.92992 1.993143,0 3.986283,0 6.039833,0 -0.24914,-0.72515 -0.49828,-1.4503 -0.75498,-2.19744 -0.49828,-0.2417 -0.99657,-0.48344 -1.50995,-0.73248 z"
         fill="#c84351"
         id="path239-7"
         style="fill:#1a7783;fill-opacity:1;stroke-width:0.743643" /><path
         d="m 108.15697,-139.14142 c -0.4983,0.48343 -0.99659,0.96687 -1.50997,1.46495 -0.74742,-0.24173 -1.49485,-0.48344 -2.26494,-0.73248 0,0.96687 0,1.93374 0,2.92992 0.99658,0.2417 1.99315,0.48344 3.01992,0.73248 0.49829,-1.20861 0.99657,-2.41719 1.50996,-3.6624 -0.24915,-0.24171 -0.49829,-0.48344 -0.75497,-0.73247 z"
         fill="#c8434f"
         id="path252-9"
         style="fill:#1a7783;fill-opacity:1;stroke-width:0.743643" /><path
         d="m 198.75445,-121.56193 c -1.24571,0.24171 -2.49142,0.48345 -3.7749,0.73247 2.20277,1.42475 3.49207,1.79661 6.03983,2.19745 0,-0.48344 0,-0.96687 0,-1.46496 -0.74741,0 -1.49485,0 -2.26493,0 0,-0.48343 0,-0.96686 0,-1.46496 z"
         fill="#c94a58"
         id="path269-2"
         style="fill:#1a7783;fill-opacity:1;stroke-width:0.743643" /><ellipse
         style="fill:#1a7783;fill-opacity:1;stroke-width:0.998454"
         id="path9-2"
         cx="-343.92258"
         cy="-57.989853"
         rx="9.9693489"
         ry="9.5387392"
         transform="scale(-1,1)" /><text
         xml:space="preserve"
         style="font-size:74.5719px;fill:#1a7783;stroke-width:0.159797;fill-opacity:1"
         x="109.5423"
         y="140.70108"
         id="text1"
         transform="scale(1.0370668,0.96425804)"><tspan
           sodipodi:role="line"
           id="tspan1"
           style="font-style:normal;font-variant:normal;font-weight:bold;font-stretch:normal;font-size:74.5719px;font-family:Lato;-inkscape-font-specification:'Lato Bold';fill:#1a7783;fill-opacity:1;stroke-width:0.159797"
           x="109.5423"
           y="140.70108">KikirikAlarm</tspan></text></g><g
       inkscape:groupmode="layer"
       id="layer2"
       inkscape:label="capa principal" /></g></svg>
